<?xml version="1.0" encoding="UTF-8" standalone="no"?>
<!DOCTYPE svg PUBLIC "-//W3C//DTD SVG 1.1//EN"
 "http://www.w3.org/Graphics/SVG/1.1/DTD/svg11.dtd">
<!-- Generated by graphviz version 2.40.1 (20161225.0304)
 -->
<!-- Title: dependencies Pages: 1 -->
<svg width="1160pt" height="211pt"
 viewBox="0.00 0.00 1160.00 211.00" xmlns="http://www.w3.org/2000/svg" xmlns:xlink="http://www.w3.org/1999/xlink">
<g id="graph0" class="graph" transform="scale(1 1) rotate(0) translate(4 207)">
<title>dependencies</title>
<polygon fill="#ffffff" stroke="transparent" points="-4,4 -4,-207 1156,-207 1156,4 -4,4"/>
<text text-anchor="start" x="555.0091" y="-42.4" font-family="sans-serif" font-weight="bold" font-size="14.00" fill="#000000">Legend</text>
<polygon fill="#ffffb3" stroke="transparent" points="342,-10 342,-30 362,-30 362,-10 342,-10"/>
<text text-anchor="start" x="365.629" y="-15.4" font-family="sans-serif" font-size="14.00" fill="#000000"> &#160;Declarations</text>
<polygon fill="#8dd3c7" stroke="transparent" points="455,-10 455,-30 475,-30 475,-10 455,-10"/>
<text text-anchor="start" x="478.7251" y="-15.4" font-family="sans-serif" font-size="14.00" fill="#000000"> &#160;Module</text>
<polygon fill="#80b1d3" stroke="transparent" points="541,-10 541,-30 561,-30 561,-10 541,-10"/>
<text text-anchor="start" x="564.7812" y="-15.4" font-family="sans-serif" font-size="14.00" fill="#000000"> &#160;Bootstrap</text>
<polygon fill="#fdb462" stroke="transparent" points="638,-10 638,-30 658,-30 658,-10 638,-10"/>
<text text-anchor="start" x="661.6732" y="-15.4" font-family="sans-serif" font-size="14.00" fill="#000000"> &#160;Providers</text>
<polygon fill="#fb8072" stroke="transparent" points="734,-10 734,-30 754,-30 754,-10 734,-10"/>
<text text-anchor="start" x="757.7258" y="-15.4" font-family="sans-serif" font-size="14.00" fill="#000000"> &#160;Exports</text>
<g id="clust1" class="cluster">
<title>cluster_PaymentModule</title>
<polygon fill="none" stroke="#000000" stroke-dasharray="1,5" points="8,-70 8,-195 1144,-195 1144,-70 8,-70"/>
</g>
<g id="clust2" class="cluster">
<title>cluster_PaymentModule_declarations</title>
<polygon fill="none" stroke="#000000" points="194,-78 194,-130 1136,-130 1136,-78 194,-78"/>
</g>
<g id="clust8" class="cluster">
<title>cluster_PaymentModule_imports</title>
<polygon fill="none" stroke="#000000" points="16,-78 16,-130 186,-130 186,-78 16,-78"/>
</g>
<!-- PaymentComponent -->
<g id="node1" class="node">
<title>PaymentComponent</title>
<polygon fill="#ffffb3" stroke="#000000" points="1128.3258,-122 997.6742,-122 997.6742,-86 1128.3258,-86 1128.3258,-122"/>
<text text-anchor="middle" x="1063" y="-99.8" font-family="Times,serif" font-size="14.00" fill="#000000">PaymentComponent</text>
</g>
<!-- PaymentModule -->
<g id="node6" class="node">
<title>PaymentModule</title>
<polygon fill="#8dd3c7" stroke="#000000" points="630.0438,-187 627.0438,-191 606.0438,-191 603.0438,-187 521.9562,-187 521.9562,-151 630.0438,-151 630.0438,-187"/>
<text text-anchor="middle" x="576" y="-164.8" font-family="Times,serif" font-size="14.00" fill="#000000">PaymentModule</text>
</g>
<!-- PaymentComponent&#45;&gt;PaymentModule -->
<g id="edge1" class="edge">
<title>PaymentComponent&#45;&gt;PaymentModule</title>
<path fill="none" stroke="#000000" d="M1063,-122.2843C1063,-143.3211 1063,-175 1063,-175 1063,-175 640.4475,-175 640.4475,-175"/>
<polygon fill="#000000" stroke="#000000" points="640.4476,-171.5001 630.4475,-175 640.4475,-178.5001 640.4476,-171.5001"/>
</g>
<!-- PaymentConfirmationComponent -->
<g id="node2" class="node">
<title>PaymentConfirmationComponent</title>
<polygon fill="#ffffb3" stroke="#000000" points="979.7603,-122 774.2397,-122 774.2397,-86 979.7603,-86 979.7603,-122"/>
<text text-anchor="middle" x="877" y="-99.8" font-family="Times,serif" font-size="14.00" fill="#000000">PaymentConfirmationComponent</text>
</g>
<!-- PaymentConfirmationComponent&#45;&gt;PaymentModule -->
<g id="edge2" class="edge">
<title>PaymentConfirmationComponent&#45;&gt;PaymentModule</title>
<path fill="none" stroke="#000000" d="M877,-122.0225C877,-139.3734 877,-163 877,-163 877,-163 640.1604,-163 640.1604,-163"/>
<polygon fill="#000000" stroke="#000000" points="640.1604,-159.5001 630.1604,-163 640.1604,-166.5001 640.1604,-159.5001"/>
</g>
<!-- PaymentFailureComponent -->
<g id="node3" class="node">
<title>PaymentFailureComponent</title>
<polygon fill="#ffffb3" stroke="#000000" points="755.979,-122 586.021,-122 586.021,-86 755.979,-86 755.979,-122"/>
<text text-anchor="middle" x="671" y="-99.8" font-family="Times,serif" font-size="14.00" fill="#000000">PaymentFailureComponent</text>
</g>
<!-- PaymentFailureComponent&#45;&gt;PaymentModule -->
<g id="edge3" class="edge">
<title>PaymentFailureComponent&#45;&gt;PaymentModule</title>
<path fill="none" stroke="#000000" d="M608.141,-122.1061C608.141,-122.1061 608.141,-140.991 608.141,-140.991"/>
<polygon fill="#000000" stroke="#000000" points="604.641,-140.9909 608.141,-150.991 611.641,-140.991 604.641,-140.9909"/>
</g>
<!-- PaymentProcessComponent -->
<g id="node4" class="node">
<title>PaymentProcessComponent</title>
<polygon fill="#ffffb3" stroke="#000000" points="567.587,-122 394.413,-122 394.413,-86 567.587,-86 567.587,-122"/>
<text text-anchor="middle" x="481" y="-99.8" font-family="Times,serif" font-size="14.00" fill="#000000">PaymentProcessComponent</text>
</g>
<!-- PaymentProcessComponent&#45;&gt;PaymentModule -->
<g id="edge4" class="edge">
<title>PaymentProcessComponent&#45;&gt;PaymentModule</title>
<path fill="none" stroke="#000000" d="M544.6361,-122.1061C544.6361,-122.1061 544.6361,-140.991 544.6361,-140.991"/>
<polygon fill="#000000" stroke="#000000" points="541.1361,-140.9909 544.6361,-150.991 548.1361,-140.991 541.1361,-140.9909"/>
</g>
<!-- PaymentSuccessComponent -->
<g id="node5" class="node">
<title>PaymentSuccessComponent</title>
<polygon fill="#ffffb3" stroke="#000000" points="376.1414,-122 201.8586,-122 201.8586,-86 376.1414,-86 376.1414,-122"/>
<text text-anchor="middle" x="289" y="-99.8" font-family="Times,serif" font-size="14.00" fill="#000000">PaymentSuccessComponent</text>
</g>
<!-- PaymentSuccessComponent&#45;&gt;PaymentModule -->
<g id="edge5" class="edge">
<title>PaymentSuccessComponent&#45;&gt;PaymentModule</title>
<path fill="none" stroke="#000000" d="M289,-122.0225C289,-139.3734 289,-163 289,-163 289,-163 511.6801,-163 511.6801,-163"/>
<polygon fill="#000000" stroke="#000000" points="511.6801,-166.5001 521.6801,-163 511.6801,-159.5001 511.6801,-166.5001"/>
</g>
<!-- PaymentRoutingModule -->
<g id="node7" class="node">
<title>PaymentRoutingModule</title>
<polygon fill="#8dd3c7" stroke="#000000" points="177.661,-122 174.661,-126 153.661,-126 150.661,-122 24.339,-122 24.339,-86 177.661,-86 177.661,-122"/>
<text text-anchor="middle" x="101" y="-99.8" font-family="Times,serif" font-size="14.00" fill="#000000">PaymentRoutingModule</text>
</g>
<!-- PaymentRoutingModule&#45;&gt;PaymentModule -->
<g id="edge6" class="edge">
<title>PaymentRoutingModule&#45;&gt;PaymentModule</title>
<path fill="none" stroke="#000000" d="M101,-122.2843C101,-143.3211 101,-175 101,-175 101,-175 511.5115,-175 511.5115,-175"/>
<polygon fill="#000000" stroke="#000000" points="511.5115,-178.5001 521.5115,-175 511.5114,-171.5001 511.5115,-178.5001"/>
</g>
</g>
</svg>
