<?xml version="1.0" encoding="UTF-8" standalone="no"?>
<!DOCTYPE svg PUBLIC "-//W3C//DTD SVG 1.1//EN"
 "http://www.w3.org/Graphics/SVG/1.1/DTD/svg11.dtd">
<!-- Generated by graphviz version 2.40.1 (20161225.0304)
 -->
<!-- Title: dependencies Pages: 1 -->
<svg width="504pt" height="284pt"
 viewBox="0.00 0.00 504.00 284.00" xmlns="http://www.w3.org/2000/svg" xmlns:xlink="http://www.w3.org/1999/xlink">
<g id="graph0" class="graph" transform="scale(1 1) rotate(0) translate(4 280)">
<title>dependencies</title>
<polygon fill="#ffffff" stroke="transparent" points="-4,4 -4,-280 500,-280 500,4 -4,4"/>
<text text-anchor="start" x="227.0091" y="-42.4" font-family="sans-serif" font-weight="bold" font-size="14.00" fill="#000000">Legend</text>
<polygon fill="#ffffb3" stroke="transparent" points="14,-10 14,-30 34,-30 34,-10 14,-10"/>
<text text-anchor="start" x="37.629" y="-15.4" font-family="sans-serif" font-size="14.00" fill="#000000"> &#160;Declarations</text>
<polygon fill="#8dd3c7" stroke="transparent" points="127,-10 127,-30 147,-30 147,-10 127,-10"/>
<text text-anchor="start" x="150.7251" y="-15.4" font-family="sans-serif" font-size="14.00" fill="#000000"> &#160;Module</text>
<polygon fill="#80b1d3" stroke="transparent" points="213,-10 213,-30 233,-30 233,-10 213,-10"/>
<text text-anchor="start" x="236.7812" y="-15.4" font-family="sans-serif" font-size="14.00" fill="#000000"> &#160;Bootstrap</text>
<polygon fill="#fdb462" stroke="transparent" points="310,-10 310,-30 330,-30 330,-10 310,-10"/>
<text text-anchor="start" x="333.6732" y="-15.4" font-family="sans-serif" font-size="14.00" fill="#000000"> &#160;Providers</text>
<polygon fill="#fb8072" stroke="transparent" points="406,-10 406,-30 426,-30 426,-10 406,-10"/>
<text text-anchor="start" x="429.7258" y="-15.4" font-family="sans-serif" font-size="14.00" fill="#000000"> &#160;Exports</text>
<g id="clust1" class="cluster">
<title>cluster_AdminUserModule</title>
<polygon fill="none" stroke="#000000" stroke-dasharray="1,5" points="26,-70 26,-268 470,-268 470,-70 26,-70"/>
</g>
<g id="clust2" class="cluster">
<title>cluster_AdminUserModule_declarations</title>
<polygon fill="none" stroke="#000000" points="156,-78 156,-130 462,-130 462,-78 156,-78"/>
</g>
<g id="clust5" class="cluster">
<title>cluster_AdminUserModule_imports</title>
<polygon fill="none" stroke="#000000" points="34,-78 34,-130 148,-130 148,-78 34,-78"/>
</g>
<g id="clust6" class="cluster">
<title>cluster_AdminUserModule_exports</title>
<polygon fill="none" stroke="#000000" points="92,-208 92,-260 404,-260 404,-208 92,-208"/>
</g>
<!-- UserFormComponent -->
<g id="node1" class="node">
<title>UserFormComponent</title>
<polygon fill="#ffffb3" stroke="#000000" points="454.0926,-122 315.9074,-122 315.9074,-86 454.0926,-86 454.0926,-122"/>
<text text-anchor="middle" x="385" y="-99.8" font-family="Times,serif" font-size="14.00" fill="#000000">UserFormComponent</text>
</g>
<!-- AdminUserModule -->
<g id="node3" class="node">
<title>AdminUserModule</title>
<polygon fill="#8dd3c7" stroke="#000000" points="293.3641,-187 290.3641,-191 269.3641,-191 266.3641,-187 168.6359,-187 168.6359,-151 293.3641,-151 293.3641,-187"/>
<text text-anchor="middle" x="231" y="-164.8" font-family="Times,serif" font-size="14.00" fill="#000000">AdminUserModule</text>
</g>
<!-- UserFormComponent&#45;&gt;AdminUserModule -->
<g id="edge1" class="edge">
<title>UserFormComponent&#45;&gt;AdminUserModule</title>
<path fill="none" stroke="#000000" d="M355.875,-122.1061C355.875,-141.3391 355.875,-169 355.875,-169 355.875,-169 303.4375,-169 303.4375,-169"/>
<polygon fill="#000000" stroke="#000000" points="303.4375,-165.5001 293.4375,-169 303.4375,-172.5001 303.4375,-165.5001"/>
</g>
<!-- UserItemComponent -->
<g id="node2" class="node">
<title>UserItemComponent</title>
<polygon fill="#ffffb3" stroke="#000000" points="297.9158,-122 164.0842,-122 164.0842,-86 297.9158,-86 297.9158,-122"/>
<text text-anchor="middle" x="231" y="-99.8" font-family="Times,serif" font-size="14.00" fill="#000000">UserItemComponent</text>
</g>
<!-- UserItemComponent&#45;&gt;AdminUserModule -->
<g id="edge2" class="edge">
<title>UserItemComponent&#45;&gt;AdminUserModule</title>
<path fill="none" stroke="#000000" d="M231,-122.1061C231,-122.1061 231,-140.991 231,-140.991"/>
<polygon fill="#000000" stroke="#000000" points="227.5001,-140.9909 231,-150.991 234.5001,-140.991 227.5001,-140.9909"/>
</g>
<!-- UserFormComponent  -->
<g id="node5" class="node">
<title>UserFormComponent </title>
<polygon fill="#fb8072" stroke="#000000" points="395.5932,-252 254.4068,-252 254.4068,-216 395.5932,-216 395.5932,-252"/>
<text text-anchor="middle" x="325" y="-229.8" font-family="Times,serif" font-size="14.00" fill="#000000">UserFormComponent </text>
</g>
<!-- AdminUserModule&#45;&gt;UserFormComponent  -->
<g id="edge4" class="edge">
<title>AdminUserModule&#45;&gt;UserFormComponent </title>
<path fill="none" stroke="#000000" stroke-dasharray="5,2" d="M273.8179,-187.1061C273.8179,-187.1061 273.8179,-205.991 273.8179,-205.991"/>
<polygon fill="#000000" stroke="#000000" points="270.3179,-205.9909 273.8179,-215.991 277.3179,-205.991 270.3179,-205.9909"/>
</g>
<!-- UserItemComponent  -->
<g id="node6" class="node">
<title>UserItemComponent </title>
<polygon fill="#fb8072" stroke="#000000" points="236.4152,-252 99.5848,-252 99.5848,-216 236.4152,-216 236.4152,-252"/>
<text text-anchor="middle" x="168" y="-229.8" font-family="Times,serif" font-size="14.00" fill="#000000">UserItemComponent </text>
</g>
<!-- AdminUserModule&#45;&gt;UserItemComponent  -->
<g id="edge5" class="edge">
<title>AdminUserModule&#45;&gt;UserItemComponent </title>
<path fill="none" stroke="#000000" stroke-dasharray="5,2" d="M202.5128,-187.1061C202.5128,-187.1061 202.5128,-205.991 202.5128,-205.991"/>
<polygon fill="#000000" stroke="#000000" points="199.0129,-205.9909 202.5128,-215.991 206.0129,-205.991 199.0129,-205.9909"/>
</g>
<!-- SharedModule -->
<g id="node4" class="node">
<title>SharedModule</title>
<polygon fill="#8dd3c7" stroke="#000000" points="140.4231,-122 137.4231,-126 116.4231,-126 113.4231,-122 41.5769,-122 41.5769,-86 140.4231,-86 140.4231,-122"/>
<text text-anchor="middle" x="91" y="-99.8" font-family="Times,serif" font-size="14.00" fill="#000000">SharedModule</text>
</g>
<!-- SharedModule&#45;&gt;AdminUserModule -->
<g id="edge3" class="edge">
<title>SharedModule&#45;&gt;AdminUserModule</title>
<path fill="none" stroke="#000000" d="M119.8767,-122.1061C119.8767,-141.3391 119.8767,-169 119.8767,-169 119.8767,-169 158.617,-169 158.617,-169"/>
<polygon fill="#000000" stroke="#000000" points="158.6171,-172.5001 168.617,-169 158.617,-165.5001 158.6171,-172.5001"/>
</g>
</g>
</svg>
