<?xml version="1.0" encoding="UTF-8" standalone="no"?>
<!DOCTYPE svg PUBLIC "-//W3C//DTD SVG 1.1//EN"
 "http://www.w3.org/Graphics/SVG/1.1/DTD/svg11.dtd">
<!-- Generated by graphviz version 2.40.1 (20161225.0304)
 -->
<!-- Title: dependencies Pages: 1 -->
<svg width="998pt" height="211pt"
 viewBox="0.00 0.00 998.00 211.00" xmlns="http://www.w3.org/2000/svg" xmlns:xlink="http://www.w3.org/1999/xlink">
<g id="graph0" class="graph" transform="scale(1 1) rotate(0) translate(4 207)">
<title>dependencies</title>
<polygon fill="#ffffff" stroke="transparent" points="-4,4 -4,-207 994,-207 994,4 -4,4"/>
<text text-anchor="start" x="474.0091" y="-42.4" font-family="sans-serif" font-weight="bold" font-size="14.00" fill="#000000">Legend</text>
<polygon fill="#ffffb3" stroke="transparent" points="261,-10 261,-30 281,-30 281,-10 261,-10"/>
<text text-anchor="start" x="284.629" y="-15.4" font-family="sans-serif" font-size="14.00" fill="#000000"> &#160;Declarations</text>
<polygon fill="#8dd3c7" stroke="transparent" points="374,-10 374,-30 394,-30 394,-10 374,-10"/>
<text text-anchor="start" x="397.7251" y="-15.4" font-family="sans-serif" font-size="14.00" fill="#000000"> &#160;Module</text>
<polygon fill="#80b1d3" stroke="transparent" points="460,-10 460,-30 480,-30 480,-10 460,-10"/>
<text text-anchor="start" x="483.7812" y="-15.4" font-family="sans-serif" font-size="14.00" fill="#000000"> &#160;Bootstrap</text>
<polygon fill="#fdb462" stroke="transparent" points="557,-10 557,-30 577,-30 577,-10 557,-10"/>
<text text-anchor="start" x="580.6732" y="-15.4" font-family="sans-serif" font-size="14.00" fill="#000000"> &#160;Providers</text>
<polygon fill="#fb8072" stroke="transparent" points="653,-10 653,-30 673,-30 673,-10 653,-10"/>
<text text-anchor="start" x="676.7258" y="-15.4" font-family="sans-serif" font-size="14.00" fill="#000000"> &#160;Exports</text>
<g id="clust1" class="cluster">
<title>cluster_QuoteModule</title>
<polygon fill="none" stroke="#000000" stroke-dasharray="1,5" points="8,-70 8,-195 982,-195 982,-70 8,-70"/>
</g>
<g id="clust2" class="cluster">
<title>cluster_QuoteModule_declarations</title>
<polygon fill="none" stroke="#000000" points="295,-78 295,-130 974,-130 974,-78 295,-78"/>
</g>
<g id="clust7" class="cluster">
<title>cluster_QuoteModule_imports</title>
<polygon fill="none" stroke="#000000" points="16,-78 16,-130 287,-130 287,-78 16,-78"/>
</g>
<!-- CountrySelectComponent -->
<g id="node1" class="node">
<title>CountrySelectComponent</title>
<polygon fill="#ffffb3" stroke="#000000" points="965.9284,-122 804.0716,-122 804.0716,-86 965.9284,-86 965.9284,-122"/>
<text text-anchor="middle" x="885" y="-99.8" font-family="Times,serif" font-size="14.00" fill="#000000">CountrySelectComponent</text>
</g>
<!-- QuoteModule -->
<g id="node5" class="node">
<title>QuoteModule</title>
<polygon fill="#8dd3c7" stroke="#000000" points="500.7619,-187 497.7619,-191 476.7619,-191 473.7619,-187 407.2381,-187 407.2381,-151 500.7619,-151 500.7619,-187"/>
<text text-anchor="middle" x="454" y="-164.8" font-family="Times,serif" font-size="14.00" fill="#000000">QuoteModule</text>
</g>
<!-- CountrySelectComponent&#45;&gt;QuoteModule -->
<g id="edge1" class="edge">
<title>CountrySelectComponent&#45;&gt;QuoteModule</title>
<path fill="none" stroke="#000000" d="M885,-122.2843C885,-143.3211 885,-175 885,-175 885,-175 510.945,-175 510.945,-175"/>
<polygon fill="#000000" stroke="#000000" points="510.9451,-171.5001 500.945,-175 510.945,-178.5001 510.9451,-171.5001"/>
</g>
<!-- OccupationSelectComponent -->
<g id="node2" class="node">
<title>OccupationSelectComponent</title>
<polygon fill="#ffffb3" stroke="#000000" points="786.0716,-122 605.9284,-122 605.9284,-86 786.0716,-86 786.0716,-122"/>
<text text-anchor="middle" x="696" y="-99.8" font-family="Times,serif" font-size="14.00" fill="#000000">OccupationSelectComponent</text>
</g>
<!-- OccupationSelectComponent&#45;&gt;QuoteModule -->
<g id="edge2" class="edge">
<title>OccupationSelectComponent&#45;&gt;QuoteModule</title>
<path fill="none" stroke="#000000" d="M696,-122.0225C696,-139.3734 696,-163 696,-163 696,-163 510.947,-163 510.947,-163"/>
<polygon fill="#000000" stroke="#000000" points="510.947,-159.5001 500.947,-163 510.9469,-166.5001 510.947,-159.5001"/>
</g>
<!-- QuoteComponent -->
<g id="node3" class="node">
<title>QuoteComponent</title>
<polygon fill="#ffffb3" stroke="#000000" points="587.5451,-122 472.4549,-122 472.4549,-86 587.5451,-86 587.5451,-122"/>
<text text-anchor="middle" x="530" y="-99.8" font-family="Times,serif" font-size="14.00" fill="#000000">QuoteComponent</text>
</g>
<!-- QuoteComponent&#45;&gt;QuoteModule -->
<g id="edge3" class="edge">
<title>QuoteComponent&#45;&gt;QuoteModule</title>
<path fill="none" stroke="#000000" d="M486.5544,-122.1061C486.5544,-122.1061 486.5544,-140.991 486.5544,-140.991"/>
<polygon fill="#000000" stroke="#000000" points="483.0544,-140.9909 486.5544,-150.991 490.0544,-140.991 483.0544,-140.9909"/>
</g>
<!-- QuoteResultComponent -->
<g id="node4" class="node">
<title>QuoteResultComponent</title>
<polygon fill="#ffffb3" stroke="#000000" points="454.8215,-122 303.1785,-122 303.1785,-86 454.8215,-86 454.8215,-122"/>
<text text-anchor="middle" x="379" y="-99.8" font-family="Times,serif" font-size="14.00" fill="#000000">QuoteResultComponent</text>
</g>
<!-- QuoteResultComponent&#45;&gt;QuoteModule -->
<g id="edge4" class="edge">
<title>QuoteResultComponent&#45;&gt;QuoteModule</title>
<path fill="none" stroke="#000000" d="M430.8899,-122.1061C430.8899,-122.1061 430.8899,-140.991 430.8899,-140.991"/>
<polygon fill="#000000" stroke="#000000" points="427.39,-140.9909 430.8899,-150.991 434.39,-140.991 427.39,-140.9909"/>
</g>
<!-- QuoteRoutingModule -->
<g id="node6" class="node">
<title>QuoteRoutingModule</title>
<polygon fill="#8dd3c7" stroke="#000000" points="279.3795,-122 276.3795,-126 255.3795,-126 252.3795,-122 140.6205,-122 140.6205,-86 279.3795,-86 279.3795,-122"/>
<text text-anchor="middle" x="210" y="-99.8" font-family="Times,serif" font-size="14.00" fill="#000000">QuoteRoutingModule</text>
</g>
<!-- QuoteRoutingModule&#45;&gt;QuoteModule -->
<g id="edge5" class="edge">
<title>QuoteRoutingModule&#45;&gt;QuoteModule</title>
<path fill="none" stroke="#000000" d="M210,-122.0225C210,-139.3734 210,-163 210,-163 210,-163 396.9543,-163 396.9543,-163"/>
<polygon fill="#000000" stroke="#000000" points="396.9544,-166.5001 406.9543,-163 396.9543,-159.5001 396.9544,-166.5001"/>
</g>
<!-- SharedModule -->
<g id="node7" class="node">
<title>SharedModule</title>
<polygon fill="#8dd3c7" stroke="#000000" points="122.4231,-122 119.4231,-126 98.4231,-126 95.4231,-122 23.5769,-122 23.5769,-86 122.4231,-86 122.4231,-122"/>
<text text-anchor="middle" x="73" y="-99.8" font-family="Times,serif" font-size="14.00" fill="#000000">SharedModule</text>
</g>
<!-- SharedModule&#45;&gt;QuoteModule -->
<g id="edge6" class="edge">
<title>SharedModule&#45;&gt;QuoteModule</title>
<path fill="none" stroke="#000000" d="M73,-122.2843C73,-143.3211 73,-175 73,-175 73,-175 396.8998,-175 396.8998,-175"/>
<polygon fill="#000000" stroke="#000000" points="396.8998,-178.5001 406.8998,-175 396.8998,-171.5001 396.8998,-178.5001"/>
</g>
</g>
</svg>
