<?xml version="1.0" encoding="UTF-8" standalone="no"?>
<!DOCTYPE svg PUBLIC "-//W3C//DTD SVG 1.1//EN"
 "http://www.w3.org/Graphics/SVG/1.1/DTD/svg11.dtd">
<!-- Generated by graphviz version 2.40.1 (20161225.0304)
 -->
<!-- Title: dependencies Pages: 1 -->
<svg width="1251pt" height="211pt"
 viewBox="0.00 0.00 1251.00 211.00" xmlns="http://www.w3.org/2000/svg" xmlns:xlink="http://www.w3.org/1999/xlink">
<g id="graph0" class="graph" transform="scale(1 1) rotate(0) translate(4 207)">
<title>dependencies</title>
<polygon fill="#ffffff" stroke="transparent" points="-4,4 -4,-207 1247,-207 1247,4 -4,4"/>
<text text-anchor="start" x="600.5091" y="-42.4" font-family="sans-serif" font-weight="bold" font-size="14.00" fill="#000000">Legend</text>
<polygon fill="#ffffb3" stroke="transparent" points="387.5,-10 387.5,-30 407.5,-30 407.5,-10 387.5,-10"/>
<text text-anchor="start" x="411.129" y="-15.4" font-family="sans-serif" font-size="14.00" fill="#000000"> &#160;Declarations</text>
<polygon fill="#8dd3c7" stroke="transparent" points="500.5,-10 500.5,-30 520.5,-30 520.5,-10 500.5,-10"/>
<text text-anchor="start" x="524.2251" y="-15.4" font-family="sans-serif" font-size="14.00" fill="#000000"> &#160;Module</text>
<polygon fill="#80b1d3" stroke="transparent" points="586.5,-10 586.5,-30 606.5,-30 606.5,-10 586.5,-10"/>
<text text-anchor="start" x="610.2812" y="-15.4" font-family="sans-serif" font-size="14.00" fill="#000000"> &#160;Bootstrap</text>
<polygon fill="#fdb462" stroke="transparent" points="683.5,-10 683.5,-30 703.5,-30 703.5,-10 683.5,-10"/>
<text text-anchor="start" x="707.1732" y="-15.4" font-family="sans-serif" font-size="14.00" fill="#000000"> &#160;Providers</text>
<polygon fill="#fb8072" stroke="transparent" points="779.5,-10 779.5,-30 799.5,-30 799.5,-10 779.5,-10"/>
<text text-anchor="start" x="803.2258" y="-15.4" font-family="sans-serif" font-size="14.00" fill="#000000"> &#160;Exports</text>
<g id="clust1" class="cluster">
<title>cluster_AdminModule</title>
<polygon fill="none" stroke="#000000" stroke-dasharray="1,5" points="8,-70 8,-195 1235,-195 1235,-70 8,-70"/>
</g>
<g id="clust2" class="cluster">
<title>cluster_AdminModule_declarations</title>
<polygon fill="none" stroke="#000000" points="443,-78 443,-130 1227,-130 1227,-78 443,-78"/>
</g>
<g id="clust8" class="cluster">
<title>cluster_AdminModule_imports</title>
<polygon fill="none" stroke="#000000" points="16,-78 16,-130 435,-130 435,-78 16,-78"/>
</g>
<!-- AdminComponent -->
<g id="node1" class="node">
<title>AdminComponent</title>
<polygon fill="#ffffb3" stroke="#000000" points="1219.2204,-122 1098.7796,-122 1098.7796,-86 1219.2204,-86 1219.2204,-122"/>
<text text-anchor="middle" x="1159" y="-99.8" font-family="Times,serif" font-size="14.00" fill="#000000">AdminComponent</text>
</g>
<!-- AdminModule -->
<g id="node6" class="node">
<title>AdminModule</title>
<polygon fill="#8dd3c7" stroke="#000000" points="637.4386,-187 634.4386,-191 613.4386,-191 610.4386,-187 538.5614,-187 538.5614,-151 637.4386,-151 637.4386,-187"/>
<text text-anchor="middle" x="588" y="-164.8" font-family="Times,serif" font-size="14.00" fill="#000000">AdminModule</text>
</g>
<!-- AdminComponent&#45;&gt;AdminModule -->
<g id="edge1" class="edge">
<title>AdminComponent&#45;&gt;AdminModule</title>
<path fill="none" stroke="#000000" d="M1159,-122.2921C1159,-144.2057 1159,-178 1159,-178 1159,-178 647.6736,-178 647.6736,-178"/>
<polygon fill="#000000" stroke="#000000" points="647.6737,-174.5001 637.6736,-178 647.6736,-181.5001 647.6737,-174.5001"/>
</g>
<!-- AdminOrdersComponent -->
<g id="node2" class="node">
<title>AdminOrdersComponent</title>
<polygon fill="#ffffb3" stroke="#000000" points="1081.3075,-122 922.6925,-122 922.6925,-86 1081.3075,-86 1081.3075,-122"/>
<text text-anchor="middle" x="1002" y="-99.8" font-family="Times,serif" font-size="14.00" fill="#000000">AdminOrdersComponent</text>
</g>
<!-- AdminOrdersComponent&#45;&gt;AdminModule -->
<g id="edge2" class="edge">
<title>AdminOrdersComponent&#45;&gt;AdminModule</title>
<path fill="none" stroke="#000000" d="M1002,-122.1061C1002,-141.3391 1002,-169 1002,-169 1002,-169 647.5269,-169 647.5269,-169"/>
<polygon fill="#000000" stroke="#000000" points="647.5269,-165.5001 637.5269,-169 647.5268,-172.5001 647.5269,-165.5001"/>
</g>
<!-- AdminUsersComponent -->
<g id="node3" class="node">
<title>AdminUsersComponent</title>
<polygon fill="#ffffb3" stroke="#000000" points="905.0912,-122 752.9088,-122 752.9088,-86 905.0912,-86 905.0912,-122"/>
<text text-anchor="middle" x="829" y="-99.8" font-family="Times,serif" font-size="14.00" fill="#000000">AdminUsersComponent</text>
</g>
<!-- AdminUsersComponent&#45;&gt;AdminModule -->
<g id="edge3" class="edge">
<title>AdminUsersComponent&#45;&gt;AdminModule</title>
<path fill="none" stroke="#000000" d="M829,-122.027C829,-138.3976 829,-160 829,-160 829,-160 647.3515,-160 647.3515,-160"/>
<polygon fill="#000000" stroke="#000000" points="647.3515,-156.5001 637.3515,-160 647.3515,-163.5001 647.3515,-156.5001"/>
</g>
<!-- DashboardComponent -->
<g id="node4" class="node">
<title>DashboardComponent</title>
<polygon fill="#ffffb3" stroke="#000000" points="734.9734,-122 593.0266,-122 593.0266,-86 734.9734,-86 734.9734,-122"/>
<text text-anchor="middle" x="664" y="-99.8" font-family="Times,serif" font-size="14.00" fill="#000000">DashboardComponent</text>
</g>
<!-- DashboardComponent&#45;&gt;AdminModule -->
<g id="edge4" class="edge">
<title>DashboardComponent&#45;&gt;AdminModule</title>
<path fill="none" stroke="#000000" d="M615.1161,-122.1061C615.1161,-122.1061 615.1161,-140.991 615.1161,-140.991"/>
<polygon fill="#000000" stroke="#000000" points="611.6161,-140.9909 615.1161,-150.991 618.6161,-140.991 611.6161,-140.9909"/>
</g>
<!-- SidebarComponent -->
<g id="node5" class="node">
<title>SidebarComponent</title>
<polygon fill="#ffffb3" stroke="#000000" points="575.0954,-122 450.9046,-122 450.9046,-86 575.0954,-86 575.0954,-122"/>
<text text-anchor="middle" x="513" y="-99.8" font-family="Times,serif" font-size="14.00" fill="#000000">SidebarComponent</text>
</g>
<!-- SidebarComponent&#45;&gt;AdminModule -->
<g id="edge5" class="edge">
<title>SidebarComponent&#45;&gt;AdminModule</title>
<path fill="none" stroke="#000000" d="M556.9145,-122.1061C556.9145,-122.1061 556.9145,-140.991 556.9145,-140.991"/>
<polygon fill="#000000" stroke="#000000" points="553.4145,-140.9909 556.9145,-150.991 560.4145,-140.991 553.4145,-140.9909"/>
</g>
<!-- AdminRoutingModule -->
<g id="node7" class="node">
<title>AdminRoutingModule</title>
<polygon fill="#8dd3c7" stroke="#000000" points="426.5561,-122 423.5561,-126 402.5561,-126 399.5561,-122 283.4439,-122 283.4439,-86 426.5561,-86 426.5561,-122"/>
<text text-anchor="middle" x="355" y="-99.8" font-family="Times,serif" font-size="14.00" fill="#000000">AdminRoutingModule</text>
</g>
<!-- AdminRoutingModule&#45;&gt;AdminModule -->
<g id="edge6" class="edge">
<title>AdminRoutingModule&#45;&gt;AdminModule</title>
<path fill="none" stroke="#000000" d="M355,-122.027C355,-138.3976 355,-160 355,-160 355,-160 528.5867,-160 528.5867,-160"/>
<polygon fill="#000000" stroke="#000000" points="528.5867,-163.5001 538.5867,-160 528.5867,-156.5001 528.5867,-163.5001"/>
</g>
<!-- AdminUserModule -->
<g id="node8" class="node">
<title>AdminUserModule</title>
<polygon fill="#8dd3c7" stroke="#000000" points="265.3641,-122 262.3641,-126 241.3641,-126 238.3641,-122 140.6359,-122 140.6359,-86 265.3641,-86 265.3641,-122"/>
<text text-anchor="middle" x="203" y="-99.8" font-family="Times,serif" font-size="14.00" fill="#000000">AdminUserModule</text>
</g>
<!-- AdminUserModule&#45;&gt;AdminModule -->
<g id="edge7" class="edge">
<title>AdminUserModule&#45;&gt;AdminModule</title>
<path fill="none" stroke="#000000" d="M203,-122.1061C203,-141.3391 203,-169 203,-169 203,-169 528.4562,-169 528.4562,-169"/>
<polygon fill="#000000" stroke="#000000" points="528.4562,-172.5001 538.4562,-169 528.4561,-165.5001 528.4562,-172.5001"/>
</g>
<!-- SharedModule -->
<g id="node9" class="node">
<title>SharedModule</title>
<polygon fill="#8dd3c7" stroke="#000000" points="122.4231,-122 119.4231,-126 98.4231,-126 95.4231,-122 23.5769,-122 23.5769,-86 122.4231,-86 122.4231,-122"/>
<text text-anchor="middle" x="73" y="-99.8" font-family="Times,serif" font-size="14.00" fill="#000000">SharedModule</text>
</g>
<!-- SharedModule&#45;&gt;AdminModule -->
<g id="edge8" class="edge">
<title>SharedModule&#45;&gt;AdminModule</title>
<path fill="none" stroke="#000000" d="M73,-122.2921C73,-144.2057 73,-178 73,-178 73,-178 528.6196,-178 528.6196,-178"/>
<polygon fill="#000000" stroke="#000000" points="528.6197,-181.5001 538.6196,-178 528.6196,-174.5001 528.6197,-181.5001"/>
</g>
</g>
</svg>
