<?xml version="1.0" encoding="UTF-8" standalone="no"?>
<!DOCTYPE svg PUBLIC "-//W3C//DTD SVG 1.1//EN"
 "http://www.w3.org/Graphics/SVG/1.1/DTD/svg11.dtd">
<!-- Generated by graphviz version 2.40.1 (20161225.0304)
 -->
<!-- Title: dependencies Pages: 1 -->
<svg width="4546pt" height="284pt"
 viewBox="0.00 0.00 4546.00 284.00" xmlns="http://www.w3.org/2000/svg" xmlns:xlink="http://www.w3.org/1999/xlink">
<g id="graph0" class="graph" transform="scale(1 1) rotate(0) translate(4 280)">
<title>dependencies</title>
<polygon fill="#ffffff" stroke="transparent" points="-4,4 -4,-280 4542,-280 4542,4 -4,4"/>
<text text-anchor="start" x="2248.0091" y="-42.4" font-family="sans-serif" font-weight="bold" font-size="14.00" fill="#000000">Legend</text>
<polygon fill="#ffffb3" stroke="transparent" points="2035,-10 2035,-30 2055,-30 2055,-10 2035,-10"/>
<text text-anchor="start" x="2058.629" y="-15.4" font-family="sans-serif" font-size="14.00" fill="#000000"> &#160;Declarations</text>
<polygon fill="#8dd3c7" stroke="transparent" points="2148,-10 2148,-30 2168,-30 2168,-10 2148,-10"/>
<text text-anchor="start" x="2171.7251" y="-15.4" font-family="sans-serif" font-size="14.00" fill="#000000"> &#160;Module</text>
<polygon fill="#80b1d3" stroke="transparent" points="2234,-10 2234,-30 2254,-30 2254,-10 2234,-10"/>
<text text-anchor="start" x="2257.7812" y="-15.4" font-family="sans-serif" font-size="14.00" fill="#000000"> &#160;Bootstrap</text>
<polygon fill="#fdb462" stroke="transparent" points="2331,-10 2331,-30 2351,-30 2351,-10 2331,-10"/>
<text text-anchor="start" x="2354.6732" y="-15.4" font-family="sans-serif" font-size="14.00" fill="#000000"> &#160;Providers</text>
<polygon fill="#fb8072" stroke="transparent" points="2427,-10 2427,-30 2447,-30 2447,-10 2427,-10"/>
<text text-anchor="start" x="2450.7258" y="-15.4" font-family="sans-serif" font-size="14.00" fill="#000000"> &#160;Exports</text>
<g id="clust1" class="cluster">
<title>cluster_AppModule</title>
<polygon fill="none" stroke="#000000" stroke-dasharray="1,5" points="8,-70 8,-268 4530,-268 4530,-70 8,-70"/>
</g>
<g id="clust2" class="cluster">
<title>cluster_AppModule_declarations</title>
<polygon fill="none" stroke="#000000" points="2209,-78 2209,-130 4522,-130 4522,-78 2209,-78"/>
</g>
<g id="clust18" class="cluster">
<title>cluster_AppModule_imports</title>
<polygon fill="none" stroke="#000000" points="1944,-78 1944,-130 2201,-130 2201,-78 1944,-78"/>
</g>
<g id="clust20" class="cluster">
<title>cluster_AppModule_bootstrap</title>
<polygon fill="none" stroke="#000000" points="2405,-208 2405,-260 2529,-260 2529,-208 2405,-208"/>
</g>
<g id="clust21" class="cluster">
<title>cluster_AppModule_providers</title>
<polygon fill="none" stroke="#000000" points="16,-78 16,-130 1936,-130 1936,-78 16,-78"/>
</g>
<!-- AboutComponent -->
<g id="node1" class="node">
<title>AboutComponent</title>
<polygon fill="#ffffb3" stroke="#000000" points="4514.3301,-122 4397.6699,-122 4397.6699,-86 4514.3301,-86 4514.3301,-122"/>
<text text-anchor="middle" x="4456" y="-99.8" font-family="Times,serif" font-size="14.00" fill="#000000">AboutComponent</text>
</g>
<!-- AppModule -->
<g id="node16" class="node">
<title>AppModule</title>
<polygon fill="#8dd3c7" stroke="#000000" points="2508.6571,-187 2505.6571,-191 2484.6571,-191 2481.6571,-187 2425.3429,-187 2425.3429,-151 2508.6571,-151 2508.6571,-187"/>
<text text-anchor="middle" x="2467" y="-164.8" font-family="Times,serif" font-size="14.00" fill="#000000">AppModule</text>
</g>
<!-- AboutComponent&#45;&gt;AppModule -->
<g id="edge1" class="edge">
<title>AboutComponent&#45;&gt;AppModule</title>
<path fill="none" stroke="#000000" d="M4456,-122.3802C4456,-146.2785 4456,-185 4456,-185 4456,-185 2519.002,-185 2519.002,-185"/>
<polygon fill="#000000" stroke="#000000" points="2519.002,-181.5001 2509.002,-185 2519.002,-188.5001 2519.002,-181.5001"/>
</g>
<!-- AppComponent -->
<g id="node2" class="node">
<title>AppComponent</title>
<polygon fill="#ffffb3" stroke="#000000" points="4379.9399,-122 4274.0601,-122 4274.0601,-86 4379.9399,-86 4379.9399,-122"/>
<text text-anchor="middle" x="4327" y="-99.8" font-family="Times,serif" font-size="14.00" fill="#000000">AppComponent</text>
</g>
<!-- AppComponent&#45;&gt;AppModule -->
<g id="edge2" class="edge">
<title>AppComponent&#45;&gt;AppModule</title>
<path fill="none" stroke="#000000" d="M4327,-122.0908C4327,-145.1328 4327,-182 4327,-182 4327,-182 2518.8989,-182 2518.8989,-182"/>
<polygon fill="#000000" stroke="#000000" points="2518.899,-178.5001 2508.8989,-182 2518.8989,-185.5001 2518.899,-178.5001"/>
</g>
<!-- CheckoutComponent -->
<g id="node3" class="node">
<title>CheckoutComponent</title>
<polygon fill="#ffffb3" stroke="#000000" points="4256.4888,-122 4121.5112,-122 4121.5112,-86 4256.4888,-86 4256.4888,-122"/>
<text text-anchor="middle" x="4189" y="-99.8" font-family="Times,serif" font-size="14.00" fill="#000000">CheckoutComponent</text>
</g>
<!-- CheckoutComponent&#45;&gt;AppModule -->
<g id="edge3" class="edge">
<title>CheckoutComponent&#45;&gt;AppModule</title>
<path fill="none" stroke="#000000" d="M4189,-122.0109C4189,-144.4852 4189,-180 4189,-180 4189,-180 2518.7133,-180 2518.7133,-180"/>
<polygon fill="#000000" stroke="#000000" points="2518.7133,-176.5001 2508.7133,-180 2518.7133,-183.5001 2518.7133,-176.5001"/>
</g>
<!-- ContactComponent -->
<g id="node4" class="node">
<title>ContactComponent</title>
<polygon fill="#ffffb3" stroke="#000000" points="4103.3795,-122 3978.6205,-122 3978.6205,-86 4103.3795,-86 4103.3795,-122"/>
<text text-anchor="middle" x="4041" y="-99.8" font-family="Times,serif" font-size="14.00" fill="#000000">ContactComponent</text>
</g>
<!-- ContactComponent&#45;&gt;AppModule -->
<g id="edge4" class="edge">
<title>ContactComponent&#45;&gt;AppModule</title>
<path fill="none" stroke="#000000" d="M4041,-122.0449C4041,-143.6623 4041,-177 4041,-177 4041,-177 2518.6953,-177 2518.6953,-177"/>
<polygon fill="#000000" stroke="#000000" points="2518.6953,-173.5001 2508.6953,-177 2518.6952,-180.5001 2518.6953,-173.5001"/>
</g>
<!-- FooterComponent -->
<g id="node5" class="node">
<title>FooterComponent</title>
<polygon fill="#ffffb3" stroke="#000000" points="3960.8809,-122 3843.1191,-122 3843.1191,-86 3960.8809,-86 3960.8809,-122"/>
<text text-anchor="middle" x="3902" y="-99.8" font-family="Times,serif" font-size="14.00" fill="#000000">FooterComponent</text>
</g>
<!-- FooterComponent&#45;&gt;AppModule -->
<g id="edge5" class="edge">
<title>FooterComponent&#45;&gt;AppModule</title>
<path fill="none" stroke="#000000" d="M3902,-122.2843C3902,-143.3211 3902,-175 3902,-175 3902,-175 2518.7836,-175 2518.7836,-175"/>
<polygon fill="#000000" stroke="#000000" points="2518.7836,-171.5001 2508.7836,-175 2518.7836,-178.5001 2518.7836,-171.5001"/>
</g>
<!-- HomeComponent -->
<g id="node6" class="node">
<title>HomeComponent</title>
<polygon fill="#ffffb3" stroke="#000000" points="3824.5451,-122 3709.4549,-122 3709.4549,-86 3824.5451,-86 3824.5451,-122"/>
<text text-anchor="middle" x="3767" y="-99.8" font-family="Times,serif" font-size="14.00" fill="#000000">HomeComponent</text>
</g>
<!-- HomeComponent&#45;&gt;AppModule -->
<g id="edge6" class="edge">
<title>HomeComponent&#45;&gt;AppModule</title>
<path fill="none" stroke="#000000" d="M3767,-122.2228C3767,-142.3652 3767,-172 3767,-172 3767,-172 2518.781,-172 2518.781,-172"/>
<polygon fill="#000000" stroke="#000000" points="2518.781,-168.5001 2508.781,-172 2518.7809,-175.5001 2518.781,-168.5001"/>
</g>
<!-- LoginComponent -->
<g id="node7" class="node">
<title>LoginComponent</title>
<polygon fill="#ffffb3" stroke="#000000" points="3691.2758,-122 3576.7242,-122 3576.7242,-86 3691.2758,-86 3691.2758,-122"/>
<text text-anchor="middle" x="3634" y="-99.8" font-family="Times,serif" font-size="14.00" fill="#000000">LoginComponent</text>
</g>
<!-- LoginComponent&#45;&gt;AppModule -->
<g id="edge7" class="edge">
<title>LoginComponent&#45;&gt;AppModule</title>
<path fill="none" stroke="#000000" d="M3634,-122.1061C3634,-141.3391 3634,-169 3634,-169 3634,-169 2518.8782,-169 2518.8782,-169"/>
<polygon fill="#000000" stroke="#000000" points="2518.8783,-165.5001 2508.8782,-169 2518.8782,-172.5001 2518.8783,-165.5001"/>
</g>
<!-- NavbarComponent -->
<g id="node8" class="node">
<title>NavbarComponent</title>
<polygon fill="#ffffb3" stroke="#000000" points="3558.0297,-122 3435.9703,-122 3435.9703,-86 3558.0297,-86 3558.0297,-122"/>
<text text-anchor="middle" x="3497" y="-99.8" font-family="Times,serif" font-size="14.00" fill="#000000">NavbarComponent</text>
</g>
<!-- NavbarComponent&#45;&gt;AppModule -->
<g id="edge8" class="edge">
<title>NavbarComponent&#45;&gt;AppModule</title>
<path fill="none" stroke="#000000" d="M3497,-122.2222C3497,-140.8285 3497,-167 3497,-167 3497,-167 2518.9746,-167 2518.9746,-167"/>
<polygon fill="#000000" stroke="#000000" points="2518.9747,-163.5001 2508.9746,-167 2518.9746,-170.5001 2518.9747,-163.5001"/>
</g>
<!-- NoAccessComponent -->
<g id="node9" class="node">
<title>NoAccessComponent</title>
<polygon fill="#ffffb3" stroke="#000000" points="3418.0786,-122 3279.9214,-122 3279.9214,-86 3418.0786,-86 3418.0786,-122"/>
<text text-anchor="middle" x="3349" y="-99.8" font-family="Times,serif" font-size="14.00" fill="#000000">NoAccessComponent</text>
</g>
<!-- NoAccessComponent&#45;&gt;AppModule -->
<g id="edge9" class="edge">
<title>NoAccessComponent&#45;&gt;AppModule</title>
<path fill="none" stroke="#000000" d="M3349,-122.002C3349,-139.6754 3349,-164 3349,-164 3349,-164 2518.9473,-164 2518.9473,-164"/>
<polygon fill="#000000" stroke="#000000" points="2518.9474,-160.5001 2508.9473,-164 2518.9473,-167.5001 2518.9474,-160.5001"/>
</g>
<!-- NotFoundComponent -->
<g id="node10" class="node">
<title>NotFoundComponent</title>
<polygon fill="#ffffb3" stroke="#000000" points="3262.1122,-122 3123.8878,-122 3123.8878,-86 3262.1122,-86 3262.1122,-122"/>
<text text-anchor="middle" x="3193" y="-99.8" font-family="Times,serif" font-size="14.00" fill="#000000">NotFoundComponent</text>
</g>
<!-- NotFoundComponent&#45;&gt;AppModule -->
<g id="edge10" class="edge">
<title>NotFoundComponent&#45;&gt;AppModule</title>
<path fill="none" stroke="#000000" d="M3193,-122.0336C3193,-139.0597 3193,-162 3193,-162 3193,-162 2518.9053,-162 2518.9053,-162"/>
<polygon fill="#000000" stroke="#000000" points="2518.9053,-158.5001 2508.9053,-162 2518.9053,-165.5001 2518.9053,-158.5001"/>
</g>
<!-- PasswordChangeComponent -->
<g id="node11" class="node">
<title>PasswordChangeComponent</title>
<polygon fill="#ffffb3" stroke="#000000" points="3105.752,-122 2928.248,-122 2928.248,-86 3105.752,-86 3105.752,-122"/>
<text text-anchor="middle" x="3017" y="-99.8" font-family="Times,serif" font-size="14.00" fill="#000000">PasswordChangeComponent</text>
</g>
<!-- PasswordChangeComponent&#45;&gt;AppModule -->
<g id="edge11" class="edge">
<title>PasswordChangeComponent&#45;&gt;AppModule</title>
<path fill="none" stroke="#000000" d="M3017,-122.0091C3017,-138.0494 3017,-159 3017,-159 3017,-159 2518.7908,-159 2518.7908,-159"/>
<polygon fill="#000000" stroke="#000000" points="2518.7909,-155.5001 2508.7908,-159 2518.7908,-162.5001 2518.7909,-155.5001"/>
</g>
<!-- PasswordRecoveryComponent -->
<g id="node12" class="node">
<title>PasswordRecoveryComponent</title>
<polygon fill="#ffffb3" stroke="#000000" points="2910.1274,-122 2721.8726,-122 2721.8726,-86 2910.1274,-86 2910.1274,-122"/>
<text text-anchor="middle" x="2816" y="-99.8" font-family="Times,serif" font-size="14.00" fill="#000000">PasswordRecoveryComponent</text>
</g>
<!-- PasswordRecoveryComponent&#45;&gt;AppModule -->
<g id="edge12" class="edge">
<title>PasswordRecoveryComponent&#45;&gt;AppModule</title>
<path fill="none" stroke="#000000" d="M2816,-122.2396C2816,-137.5706 2816,-157 2816,-157 2816,-157 2518.7509,-157 2518.7509,-157"/>
<polygon fill="#000000" stroke="#000000" points="2518.7509,-153.5001 2508.7509,-157 2518.7509,-160.5001 2518.7509,-153.5001"/>
</g>
<!-- ScrollToTopDirective -->
<g id="node13" class="node">
<title>ScrollToTopDirective</title>
<polygon fill="#ffffb3" stroke="#000000" points="2703.6275,-122 2564.3725,-122 2564.3725,-86 2703.6275,-86 2703.6275,-122"/>
<text text-anchor="middle" x="2634" y="-99.8" font-family="Times,serif" font-size="14.00" fill="#000000">ScrollToTopDirective</text>
</g>
<!-- ScrollToTopDirective&#45;&gt;AppModule -->
<g id="edge13" class="edge">
<title>ScrollToTopDirective&#45;&gt;AppModule</title>
<path fill="none" stroke="#000000" d="M2634,-122.0511C2634,-136.373 2634,-154 2634,-154 2634,-154 2518.7104,-154 2518.7104,-154"/>
<polygon fill="#000000" stroke="#000000" points="2518.7104,-150.5001 2508.7104,-154 2518.7103,-157.5001 2518.7104,-150.5001"/>
</g>
<!-- ShoppingCartComponent -->
<g id="node14" class="node">
<title>ShoppingCartComponent</title>
<polygon fill="#ffffb3" stroke="#000000" points="2546.608,-122 2387.392,-122 2387.392,-86 2546.608,-86 2546.608,-122"/>
<text text-anchor="middle" x="2467" y="-99.8" font-family="Times,serif" font-size="14.00" fill="#000000">ShoppingCartComponent</text>
</g>
<!-- ShoppingCartComponent&#45;&gt;AppModule -->
<g id="edge14" class="edge">
<title>ShoppingCartComponent&#45;&gt;AppModule</title>
<path fill="none" stroke="#000000" d="M2467,-122.1061C2467,-122.1061 2467,-140.991 2467,-140.991"/>
<polygon fill="#000000" stroke="#000000" points="2463.5001,-140.9909 2467,-150.991 2470.5001,-140.991 2463.5001,-140.9909"/>
</g>
<!-- UserPoliciesComponent -->
<g id="node15" class="node">
<title>UserPoliciesComponent</title>
<polygon fill="#ffffb3" stroke="#000000" points="2369.087,-122 2216.913,-122 2216.913,-86 2369.087,-86 2369.087,-122"/>
<text text-anchor="middle" x="2293" y="-99.8" font-family="Times,serif" font-size="14.00" fill="#000000">UserPoliciesComponent</text>
</g>
<!-- UserPoliciesComponent&#45;&gt;AppModule -->
<g id="edge15" class="edge">
<title>UserPoliciesComponent&#45;&gt;AppModule</title>
<path fill="none" stroke="#000000" d="M2293,-122.0511C2293,-136.373 2293,-154 2293,-154 2293,-154 2415.3227,-154 2415.3227,-154"/>
<polygon fill="#000000" stroke="#000000" points="2415.3227,-157.5001 2425.3227,-154 2415.3226,-150.5001 2415.3227,-157.5001"/>
</g>
<!-- AppComponent  -->
<g id="node19" class="node">
<title>AppComponent </title>
<polygon fill="#80b1d3" stroke="#000000" points="2521.439,-252 2412.561,-252 2412.561,-216 2521.439,-216 2521.439,-252"/>
<text text-anchor="middle" x="2467" y="-229.8" font-family="Times,serif" font-size="14.00" fill="#000000">AppComponent </text>
</g>
<!-- AppModule&#45;&gt;AppComponent  -->
<g id="edge18" class="edge">
<title>AppModule&#45;&gt;AppComponent </title>
<path fill="none" stroke="#000000" stroke-dasharray="1,5" d="M2467,-187.1061C2467,-187.1061 2467,-205.991 2467,-205.991"/>
<polygon fill="#000000" stroke="#000000" points="2463.5001,-205.9909 2467,-215.991 2470.5001,-205.991 2463.5001,-205.9909"/>
</g>
<!-- AdminUserModule -->
<g id="node17" class="node">
<title>AdminUserModule</title>
<polygon fill="#8dd3c7" stroke="#000000" points="2193.3641,-122 2190.3641,-126 2169.3641,-126 2166.3641,-122 2068.6359,-122 2068.6359,-86 2193.3641,-86 2193.3641,-122"/>
<text text-anchor="middle" x="2131" y="-99.8" font-family="Times,serif" font-size="14.00" fill="#000000">AdminUserModule</text>
</g>
<!-- AdminUserModule&#45;&gt;AppModule -->
<g id="edge16" class="edge">
<title>AdminUserModule&#45;&gt;AppModule</title>
<path fill="none" stroke="#000000" d="M2131,-122.2396C2131,-137.5706 2131,-157 2131,-157 2131,-157 2415.1247,-157 2415.1247,-157"/>
<polygon fill="#000000" stroke="#000000" points="2415.1248,-160.5001 2425.1247,-157 2415.1247,-153.5001 2415.1248,-160.5001"/>
</g>
<!-- SharedModule -->
<g id="node18" class="node">
<title>SharedModule</title>
<polygon fill="#8dd3c7" stroke="#000000" points="2050.4231,-122 2047.4231,-126 2026.4231,-126 2023.4231,-122 1951.5769,-122 1951.5769,-86 2050.4231,-86 2050.4231,-122"/>
<text text-anchor="middle" x="2001" y="-99.8" font-family="Times,serif" font-size="14.00" fill="#000000">SharedModule</text>
</g>
<!-- SharedModule&#45;&gt;AppModule -->
<g id="edge17" class="edge">
<title>SharedModule&#45;&gt;AppModule</title>
<path fill="none" stroke="#000000" d="M2001,-122.0091C2001,-138.0494 2001,-159 2001,-159 2001,-159 2415.2355,-159 2415.2355,-159"/>
<polygon fill="#000000" stroke="#000000" points="2415.2355,-162.5001 2425.2355,-159 2415.2355,-155.5001 2415.2355,-162.5001"/>
</g>
<!-- AuthService -->
<g id="node20" class="node">
<title>AuthService</title>
<ellipse fill="#fdb462" stroke="#000000" cx="1869" cy="-104" rx="59.1083" ry="18"/>
<text text-anchor="middle" x="1869" y="-99.8" font-family="Times,serif" font-size="14.00" fill="#000000">AuthService</text>
</g>
<!-- AuthService&#45;&gt;AppModule -->
<g id="edge19" class="edge">
<title>AuthService&#45;&gt;AppModule</title>
<path fill="none" stroke="#000000" d="M1869,-122.0336C1869,-139.0597 1869,-162 1869,-162 1869,-162 2414.9498,-162 2414.9498,-162"/>
<polygon fill="#000000" stroke="#000000" points="2414.9498,-165.5001 2424.9498,-162 2414.9498,-158.5001 2414.9498,-165.5001"/>
</g>
<!-- OrderService -->
<g id="node21" class="node">
<title>OrderService</title>
<ellipse fill="#fdb462" stroke="#000000" cx="1729" cy="-104" rx="62.516" ry="18"/>
<text text-anchor="middle" x="1729" y="-99.8" font-family="Times,serif" font-size="14.00" fill="#000000">OrderService</text>
</g>
<!-- OrderService&#45;&gt;AppModule -->
<g id="edge20" class="edge">
<title>OrderService&#45;&gt;AppModule</title>
<path fill="none" stroke="#000000" d="M1729,-122.002C1729,-139.6754 1729,-164 1729,-164 1729,-164 2415.2074,-164 2415.2074,-164"/>
<polygon fill="#000000" stroke="#000000" points="2415.2074,-167.5001 2425.2074,-164 2415.2074,-160.5001 2415.2074,-167.5001"/>
</g>
<!-- PaypalPaymentService -->
<g id="node22" class="node">
<title>PaypalPaymentService</title>
<ellipse fill="#fdb462" stroke="#000000" cx="1548" cy="-104" rx="100.1375" ry="18"/>
<text text-anchor="middle" x="1548" y="-99.8" font-family="Times,serif" font-size="14.00" fill="#000000">PaypalPaymentService</text>
</g>
<!-- PaypalPaymentService&#45;&gt;AppModule -->
<g id="edge21" class="edge">
<title>PaypalPaymentService&#45;&gt;AppModule</title>
<path fill="none" stroke="#000000" d="M1548,-122.2222C1548,-140.8285 1548,-167 1548,-167 1548,-167 2415.1244,-167 2415.1244,-167"/>
<polygon fill="#000000" stroke="#000000" points="2415.1245,-170.5001 2425.1244,-167 2415.1244,-163.5001 2415.1245,-170.5001"/>
</g>
<!-- RegisterService -->
<g id="node23" class="node">
<title>RegisterService</title>
<ellipse fill="#fdb462" stroke="#000000" cx="1358" cy="-104" rx="72.3439" ry="18"/>
<text text-anchor="middle" x="1358" y="-99.8" font-family="Times,serif" font-size="14.00" fill="#000000">RegisterService</text>
</g>
<!-- RegisterService&#45;&gt;AppModule -->
<g id="edge22" class="edge">
<title>RegisterService&#45;&gt;AppModule</title>
<path fill="none" stroke="#000000" d="M1358,-122.1061C1358,-141.3391 1358,-169 1358,-169 1358,-169 2415.2156,-169 2415.2156,-169"/>
<polygon fill="#000000" stroke="#000000" points="2415.2156,-172.5001 2425.2156,-169 2415.2156,-165.5001 2415.2156,-172.5001"/>
</g>
<!-- RoleService -->
<g id="node24" class="node">
<title>RoleService</title>
<ellipse fill="#fdb462" stroke="#000000" cx="1210" cy="-104" rx="58.4628" ry="18"/>
<text text-anchor="middle" x="1210" y="-99.8" font-family="Times,serif" font-size="14.00" fill="#000000">RoleService</text>
</g>
<!-- RoleService&#45;&gt;AppModule -->
<g id="edge23" class="edge">
<title>RoleService&#45;&gt;AppModule</title>
<path fill="none" stroke="#000000" d="M1210,-122.2228C1210,-142.3652 1210,-172 1210,-172 1210,-172 2415.1774,-172 2415.1774,-172"/>
<polygon fill="#000000" stroke="#000000" points="2415.1774,-175.5001 2425.1774,-172 2415.1773,-168.5001 2415.1774,-175.5001"/>
</g>
<!-- ShoppingCartService -->
<g id="node25" class="node">
<title>ShoppingCartService</title>
<ellipse fill="#fdb462" stroke="#000000" cx="1040" cy="-104" rx="93.7804" ry="18"/>
<text text-anchor="middle" x="1040" y="-99.8" font-family="Times,serif" font-size="14.00" fill="#000000">ShoppingCartService</text>
</g>
<!-- ShoppingCartService&#45;&gt;AppModule -->
<g id="edge24" class="edge">
<title>ShoppingCartService&#45;&gt;AppModule</title>
<path fill="none" stroke="#000000" d="M1040,-122.2843C1040,-143.3211 1040,-175 1040,-175 1040,-175 2415.0654,-175 2415.0654,-175"/>
<polygon fill="#000000" stroke="#000000" points="2415.0655,-178.5001 2425.0654,-175 2415.0654,-171.5001 2415.0655,-178.5001"/>
</g>
<!-- TermLifeSimulatorService -->
<g id="node26" class="node">
<title>TermLifeSimulatorService</title>
<ellipse fill="#fdb462" stroke="#000000" cx="813" cy="-104" rx="115.159" ry="18"/>
<text text-anchor="middle" x="813" y="-99.8" font-family="Times,serif" font-size="14.00" fill="#000000">TermLifeSimulatorService</text>
</g>
<!-- TermLifeSimulatorService&#45;&gt;AppModule -->
<g id="edge25" class="edge">
<title>TermLifeSimulatorService&#45;&gt;AppModule</title>
<path fill="none" stroke="#000000" d="M813,-122.0449C813,-143.6623 813,-177 813,-177 813,-177 2415.2871,-177 2415.2871,-177"/>
<polygon fill="#000000" stroke="#000000" points="2415.2872,-180.5001 2425.2871,-177 2415.2871,-173.5001 2415.2872,-180.5001"/>
</g>
<!-- UniversalLifeSimulatorService -->
<g id="node27" class="node">
<title>UniversalLifeSimulatorService</title>
<ellipse fill="#fdb462" stroke="#000000" cx="548" cy="-104" rx="131.912" ry="18"/>
<text text-anchor="middle" x="548" y="-99.8" font-family="Times,serif" font-size="14.00" fill="#000000">UniversalLifeSimulatorService</text>
</g>
<!-- UniversalLifeSimulatorService&#45;&gt;AppModule -->
<g id="edge26" class="edge">
<title>UniversalLifeSimulatorService&#45;&gt;AppModule</title>
<path fill="none" stroke="#000000" d="M548,-122.0109C548,-144.4852 548,-180 548,-180 548,-180 2415.1343,-180 2415.1343,-180"/>
<polygon fill="#000000" stroke="#000000" points="2415.1343,-183.5001 2425.1343,-180 2415.1343,-176.5001 2415.1343,-183.5001"/>
</g>
<!-- UserService -->
<g id="node28" class="node">
<title>UserService</title>
<ellipse fill="#fdb462" stroke="#000000" cx="340" cy="-104" rx="58.4415" ry="18"/>
<text text-anchor="middle" x="340" y="-99.8" font-family="Times,serif" font-size="14.00" fill="#000000">UserService</text>
</g>
<!-- UserService&#45;&gt;AppModule -->
<g id="edge27" class="edge">
<title>UserService&#45;&gt;AppModule</title>
<path fill="none" stroke="#000000" d="M340,-122.0908C340,-145.1328 340,-182 340,-182 340,-182 2414.9905,-182 2414.9905,-182"/>
<polygon fill="#000000" stroke="#000000" points="2414.9905,-185.5001 2424.9905,-182 2414.9905,-178.5001 2414.9905,-185.5001"/>
</g>
<!-- WholeLifeSimulatorService -->
<g id="node29" class="node">
<title>WholeLifeSimulatorService</title>
<ellipse fill="#fdb462" stroke="#000000" cx="144" cy="-104" rx="119.8179" ry="18"/>
<text text-anchor="middle" x="144" y="-99.8" font-family="Times,serif" font-size="14.00" fill="#000000">WholeLifeSimulatorService</text>
</g>
<!-- WholeLifeSimulatorService&#45;&gt;AppModule -->
<g id="edge28" class="edge">
<title>WholeLifeSimulatorService&#45;&gt;AppModule</title>
<path fill="none" stroke="#000000" d="M144,-122.3802C144,-146.2785 144,-185 144,-185 144,-185 2415.1969,-185 2415.1969,-185"/>
<polygon fill="#000000" stroke="#000000" points="2415.197,-188.5001 2425.1969,-185 2415.1969,-181.5001 2415.197,-188.5001"/>
</g>
</g>
</svg>
